#!OML:ASF F:\VICON\USERDATA\INSTALL\rory3\rory3.ASF
:FULLY-SPECIFIED
:DEGREES
283
root -0.683556 17.6521 12.3382 111.287 83.6713 111.874
lowerback 11.8276 0.43858 -5.17133
upperback 1.4477 -0.0568744 -0.793952
thorax -5.10947 0.0980579 2.08999
lowerneck -19.4723 -4.57037 -11.5294
upperneck 31.8723 -4.0922 6.3365
head 14.7048 -2.04054 3.92571
rclavicle -6.31141e-015 -3.57812e-015
rhumerus -30.6226 -14.5697 -80.3947
rradius 32.2071
rwrist 6.70737
rhand -14.5092 9.47542
rfingers 7.12502
rthumb 11.6381 -20.1814
lclavicle -6.31141e-015 -3.57812e-015
lhumerus -26.2607 -3.95667 89.9438
lradius 39.6461
lwrist -4.24117
lhand -19.3946 25.1756
lfingers 7.12502
lthumb 6.92428 55.0424
rfemur -30.4878 -1.79589 10.8473
rtibia 34.8494
rfoot -4.52326 -6.24947
rtoes 1.9425
lfemur 4.88698 2.96276 -33.3924
ltibia 13.1855
lfoot -12.3955 -8.2835
ltoes 12.344
284
root -0.549459 17.6342 12.3555 112.776 83.5026 113.379
lowerback 11.7589 0.370404 -5.332
upperback 1.49506 -0.159345 -0.779208
thorax -5.01301 0.0483708 2.21219
lowerneck -19.5355 -4.55888 -11.6483
upperneck 31.8828 -4.06715 6.45541
head 14.7275 -2.02795 4.00177
rclavicle -1.49089e-015 -1.07344e-014
rhumerus -30.7006 -14.5482 -80.3717
rradius 31.9448
rwrist 6.7511
rhand -14.5492 9.45734
rfingers 7.12502
rthumb 11.5995 -20.2016
lclavicle -1.49089e-015 -1.07344e-014
lhumerus -25.9337 -4.41338 90.1517
lradius 39.8859
lwrist -4.1539
lhand -19.4829 25.2652
lfingers 7.12502
lthumb 6.83905 55.1347
rfemur -30.4417 -2.00066 10.882
rtibia 32.5383
rfoot -4.41691 -5.72416
rtoes -0.375443
lfemur 5.67065 2.94937 -33.3815
ltibia 12.638
lfoot -12.5376 -8.38628
ltoes 11.9468
285
root -0.415543 17.622 12.3712 114.417 83.3999 115.029
lowerback 11.6589 0.304809 -5.4067
upperback 1.56858 -0.243524 -0.75973
thorax -4.87275 0.00440346 2.28764
lowerneck -19.6262 -4.53684 -11.6037
upperneck 31.8712 -4.03539 6.43544
head 14.7364 -2.01151 3.99064
rclavicle -5.61567e-015 -3.97569e-015
rhumerus -30.7408 -14.5719 -80.3399
rradius 31.7217
rwrist 6.97848
rhand -14.4786 9.2465
rfingers 7.12502
rthumb 11.6676 -20.4086
lclavicle -5.61567e-015 -3.97569e-015
lhumerus -25.5446 -4.6399 90.2419
lradius 40.061
lwrist -4.58776
lhand -19.1218 24.7417
lfingers 7.12502
lthumb 7.18759 54.5997
rfemur -30.339 -2.20977 10.9983
rtibia 30.2994
rfoot -4.80594 -5.19106
rtoes -3.63339
lfemur 6.44872 3.25917 -33.2044
ltibia 12.0305
lfoot -12.566 -8.90078
ltoes 11.4822
286
root -0.279015 17.616 12.3891 116.143 83.2985 116.757
lowerback 11.5369 0.253328 -5.47804
upperback 1.62097 -0.30917 -0.758418
thorax -4.74407 -0.0303811 2.33878
lowerneck -19.6043 -4.53033 -11.5173
upperneck 31.763 -4.04047 6.36993
head 14.678 -2.01217 3.94205
rclavicle -6.4605e-016 1.23246e-014
rhumerus -30.8212 -14.3524 -80.3991
rradius 31.4992
rwrist 6.86041
rhand -14.5394 9.06925
rfingers 7.12502
rthumb 11.609 -20.5892
lclavicle -6.4605e-016 1.23246e-014
lhumerus -25.1303 -4.67509 90.1899
lradius 40.054
lwrist -5.32421
lhand -18.2543 23.8472
lfingers 7.12502
lthumb 8.02493 53.6748
rfemur -30.1645 -2.06146 10.9971
rtibia 28.1702
rfoot -5.54475 -4.88429
rtoes -6.25255
lfemur 7.3196 3.32215 -33.0361
ltibia 11.3087
lfoot -12.3858 -9.24568
ltoes 11.2926
287
root -0.141864 17.6089 12.4116 117.771 83.153 118.393
lowerback 11.4636 0.216633 -5.58993
upperback 1.63036 -0.367057 -0.789173
thorax -4.68819 -0.0584898 2.37791
lowerneck -19.49 -4.53633 -11.4929
upperneck 31.6906 -4.0865 6.41299
head 14.6249 -2.02276 3.9448
rclavicle -9.29318e-015 -4.77083e-015
rhumerus -31.0239 -14.2235 -80.4451
rradius 31.2886
rwrist 6.78903
rhand -14.9313 9.2855
rfingers 7.12502
rthumb 11.231 -20.3939
lclavicle -9.29318e-015 -4.77083e-015
lhumerus -24.8301 -4.96032 90.2301
lradius 40.1003
lwrist -5.57944
lhand -18.0661 23.8413
lfingers 7.12502
lthumb 8.20651 53.662
rfemur -29.9578 -1.34636 10.7735
rtibia 26.1992
rfoot -6.46604 -4.90083
rtoes -8.37406
lfemur 8.27117 2.89912 -33.0014
ltibia 10.4913
lfoot -12.1968 -9.07843
ltoes 11.3915
288
root -0.00211704 17.5958 12.4377 118.749 82.9006 119.462
lowerback 11.4946 0.174986 -5.91594
upperback 1.63883 -0.463626 -0.813563
thorax -4.68574 -0.100013 2.55045
lowerneck -19.3972 -4.52649 -11.4029
upperneck 31.6946 -4.09566 6.36339
head 14.6028 -2.02246 3.90714
rclavicle 4.52235e-015 6.75868e-015
rhumerus -31.2404 -14.509 -80.3421
rradius 30.991
rwrist 7.29575
rhand -15.0597 9.60402
rfingers 7.12502
rthumb 11.1072 -20.082
lclavicle 4.52235e-015 6.75868e-015
lhumerus -24.6397 -5.29311 90.3543
lradius 40.2339
lwrist -5.5331
lhand -18.4788 24.351
lfingers 7.12502
lthumb 7.80819 54.1868
rfemur -29.6883 -0.405768 10.3632
rtibia 24.4657
rfoot -7.34565 -5.06437
rtoes -11.0036
lfemur 9.39757 2.49638 -33.0854
ltibia 9.53308
lfoot -11.9618 -8.88135
ltoes 11.2955
289
root 0.139242 17.5824 12.4642 119.275 82.608 120.043
lowerback 11.4426 0.0996337 -6.33864
upperback 1.67019 -0.608399 -0.820397
thorax -4.60622 -0.166268 2.80226
lowerneck -19.4722 -4.48199 -11.2827
upperneck 31.7948 -4.0101 6.21274
head 14.6474 -1.99199 3.8425
rclavicle -4.67144e-015 8.34896e-015
rhumerus -31.3499 -14.5505 -80.3182
rradius 30.7203
rwrist 7.6124
rhand -14.6115 9.45827
rfingers 7.12502
rthumb 11.5395 -20.2041
lclavicle -4.67144e-015 8.34896e-015
lhumerus -24.3926 -5.46223 90.4313
lradius 40.3044
lwrist -5.35601
lhand -18.7861 24.2985
lfingers 7.12502
lthumb 7.51164 54.1451
rfemur -29.529 0.312486 9.95165
rtibia 23.0584
rfoot -8.08192 -5.17453
rtoes -11.7319
lfemur 10.5449 2.10966 -33.2317
ltibia 8.44459
lfoot -11.6239 -8.69623
ltoes 10.4946
290
root 0.279926 17.5708 12.4903 120.062 82.3975 120.86
lowerback 11.4245 0.0491246 -6.6741
upperback 1.65206 -0.713357 -0.763735
thorax -4.60003 -0.211939 3.06608
lowerneck -19.5179 -4.49841 -11.4243
upperneck 31.9378 -3.96926 6.20379
head 14.7235 -1.99328 3.87681
rclavicle 1.61016e-014 1.55052e-014
rhumerus -31.5576 -14.4771 -80.2228
rradius 30.5185
rwrist 7.66173
rhand -14.2958 9.41786
rfingers 7.12502
rthumb 11.8439 -20.2272
lclavicle 1.61016e-014 1.55052e-014
lhumerus -24.19 -5.56612 90.5585
lradius 40.2744
lwrist -5.28718
lhand -18.6 24.0902
lfingers 7.12502
lthumb 7.69126 53.9304
rfemur -29.4498 0.590582 9.80805
rtibia 21.9378
rfoot -8.51719 -5.00226
rtoes -12.0521
lfemur 11.5837 1.72684 -33.3005
ltibia 7.5009
lfoot -11.419 -8.43874
ltoes 9.33725
291
root 0.419804 17.5561 12.5131 120.883 82.197 121.632
lowerback 11.359 0.00807975 -6.89995
upperback 1.6034 -0.793147 -0.760015
thorax -4.60357 -0.246658 3.20838
lowerneck -19.4699 -4.50221 -11.5935
upperneck 31.9907 -3.96705 6.35149
head 14.7459 -1.99258 3.97196
rclavicle 9.0944e-015 1.82882e-014
rhumerus -31.7716 -14.5297 -80.1613
rradius 30.2665
rwrist 7.69571
rhand -14.3831 9.39073
rfingers 7.12502
rthumb 11.7597 -20.2592
lclavicle 9.0944e-015 1.82882e-014
lhumerus -24.0034 -5.76707 90.6
lradius 40.2445
lwrist -5.35178
lhand -18.3758 24.1023
lfingers 7.12502
lthumb 7.90763 53.9344
rfemur -29.4927 0.315316 9.87601
rtibia 21.0895
rfoot -8.79134 -4.52268
rtoes -13.4913
lfemur 12.3955 1.33506 -33.3853
ltibia 6.81157
lfoot -11.2932 -8.13877
ltoes 8.20435
292
root 0.560814 17.5449 12.5374 122.465 82.209 123.187
lowerback 11.2946 -0.0419209 -6.86739
upperback 1.56958 -0.851163 -0.7051
thorax -4.59708 -0.275849 3.2559
lowerneck -19.4668 -4.50874 -11.6784
upperneck 32.0888 -3.96884 6.42891
head 14.7952 -1.99293 4.02396
rclavicle 2.03754e-015 5.96354e-015
rhumerus -32.0013 -14.7073 -80.0782
rradius 30.056
rwrist 7.87874
rhand -14.4666 9.24332
rfingers 7.12502
rthumb 11.6792 -20.4111
lclavicle 2.03754e-015 5.96354e-015
lhumerus -23.8374 -6.21062 90.6649
lradius 40.2058
lwrist -5.12122
lhand -18.6662 24.1302
lfingers 7.12502
lthumb 7.62737 53.9727
rfemur -29.468 0.102569 10.2121
rtibia 20.5128
rfoot -9.19362 -4.2298
rtoes -14.3975
lfemur 13.1121 0.94899 -33.1539
ltibia 6.34412
lfoot -10.991 -8.13332
ltoes 9.30272
293
root 0.703058 17.5372 12.5639 123.872 82.2019 124.579
lowerback 11.2342 -0.0401055 -6.90598
upperback 1.5466 -0.847994 -0.6389
thorax -4.58647 -0.273795 3.34622
lowerneck -19.4251 -4.58808 -11.8008
upperneck 32.1339 -4.05731 6.46839
head 14.8234 -2.04033 4.04775
rclavicle 6.65929e-015 -5.96354e-015
rhumerus -32.2519 -15.2842 -79.8115
rradius 29.7676
rwrist 8.33468
rhand -14.4748 9.24992
rfingers 7.12502
rthumb 11.6713 -20.405
lclavicle 6.65929e-015 -5.96354e-015
lhumerus -23.6871 -6.64506 90.8055
lradius 40.1537
lwrist -4.75316
lhand -18.9919 24.3759
lfingers 7.12502
lthumb 7.31293 54.2296
rfemur -29.3254 0.551011 10.3261
rtibia 20.1711
rfoot -9.52212 -4.73052
rtoes -14.6005
lfemur 13.6738 0.571797 -32.9252
ltibia 6.19431
lfoot -10.7309 -8.26165
ltoes 11.3351
294
root 0.840028 17.5308 12.5827 124.932 82.1361 125.568
lowerback 11.1992 -0.062912 -6.90002
upperback 1.4871 -0.8794 -0.643404
thorax -4.62671 -0.2874 3.34269
lowerneck -19.4511 -4.63188 -11.8415
upperneck 32.2171 -4.11781 6.51467
head 14.878 -2.06462 4.06717
rclavicle -9.93923e-015 8.34896e-015
rhumerus -32.4978 -15.7907 -79.6102
rradius 29.4718
rwrist 8.61545
rhand -14.4344 9.21079
rfingers 7.12502
rthumb 11.7102 -20.4419
lclavicle -9.93923e-015 8.34896e-015
lhumerus -23.551 -6.79917 90.8426
lradius 40.0538
lwrist -4.757
lhand -18.9545 24.3541
lfingers 7.12502
lthumb 7.34902 54.2065
rfemur -29.2681 0.700535 10.4735
rtibia 20.0729
rfoot -9.48139 -5.05801
rtoes -14.6219
lfemur 14.0894 0.208775 -32.8393
ltibia 6.1634
lfoot -10.6763 -8.19371
ltoes 10.4034
295
root 0.974516 17.5267 12.5962 126.073 82.1271 126.644
lowerback 11.2186 -0.107702 -6.7597
upperback 1.41392 -0.929935 -0.666589
thorax -4.71219 -0.311213 3.24763
lowerneck -19.5106 -4.64292 -11.7221
upperneck 32.333 -4.14759 6.45758
head 14.9432 -2.07006 4.02174
rclavicle 6.65929e-015 1.15295e-014
rhumerus -32.7558 -15.9237 -79.5499
rradius 29.2678
rwrist 8.50707
rhand -14.3461 9.09141
rfingers 7.12502
rthumb 11.7953 -20.5564
lclavicle 6.65929e-015 1.15295e-014
lhumerus -23.3891 -6.72172 90.7704
lradius 39.8418
lwrist -5.17891
lhand -18.4441 23.9742
lfingers 7.12502
lthumb 7.84176 53.8088
rfemur -29.2884 0.268101 10.8966
rtibia 20.2533
rfoot -8.96588 -4.66066
rtoes -14.3417
lfemur 14.5772 -0.125878 -32.7243
ltibia 6.00072
lfoot -10.6134 -8.0631
ltoes 7.22843
296
root 1.11239 17.5224 12.6117 126.582 82.0792 127.159
lowerback 11.343 -0.137818 -6.77459
upperback 1.31756 -0.988207 -0.66456
thorax -4.87699 -0.332607 3.26944
lowerneck -19.5015 -4.63838 -11.7328
upperneck 32.4911 -4.13254 6.46166
head 15.0134 -2.06419 4.03578
rclavicle -1.06101e-014 -1.43125e-014
rhumerus -33.0711 -15.9139 -79.464
rradius 29.0284
rwrist 8.42364
rhand -14.2761 8.99032
rfingers 7.12502
rthumb 11.8629 -20.6536
lclavicle -1.06101e-014 -1.43125e-014
lhumerus -23.3443 -6.32254 90.7557
lradius 39.6041
lwrist -5.57687
lhand -18.2337 23.7279
lfingers 7.12502
lthumb 8.04481 53.5548
rfemur -29.2817 -0.372691 11.3412
rtibia 20.6799
rfoot -8.14012 -3.88247
rtoes -13.6753
lfemur 15.2099 -0.409977 -32.6671
ltibia 5.71543
lfoot -10.3341 -8.04692
ltoes 5.28727
